<?xml version="1.0" encoding="UTF-8" standalone="no"?>
<!DOCTYPE svg PUBLIC "-//W3C//DTD SVG 1.1//EN" "http://www.w3.org/Graphics/SVG/1.1/DTD/svg11.dtd">
<svg width="100%" height="100%" viewBox="0 0 24 24" version="1.1" xmlns="http://www.w3.org/2000/svg" xmlns:xlink="http://www.w3.org/1999/xlink" xml:space="preserve" xmlns:serif="http://www.serif.com/" style="fill-rule:evenodd;clip-rule:evenodd;stroke-linejoin:round;stroke-miterlimit:2;">
    <path d="M12,10.798l-5.713,-5.714c-0.332,-0.331 -0.871,-0.331 -1.203,0c-0.331,0.332 -0.331,0.871 0,1.203l5.714,5.713l-5.714,5.713c-0.331,0.332 -0.331,0.871 0,1.203c0.332,0.331 0.871,0.331 1.203,-0l5.713,-5.714l5.713,5.714c0.332,0.331 0.871,0.331 1.203,-0c0.331,-0.332 0.331,-0.871 -0,-1.203l-5.714,-5.713l5.714,-5.713c0.331,-0.332 0.331,-0.871 -0,-1.203c-0.332,-0.331 -0.871,-0.331 -1.203,0l-5.713,5.714Z"/>
</svg>
