<?xml version="1.0" encoding="UTF-8" standalone="no"?>
<!DOCTYPE svg PUBLIC "-//W3C//DTD SVG 1.1//EN" "http://www.w3.org/Graphics/SVG/1.1/DTD/svg11.dtd">
<svg width="100%" height="100%" viewBox="0 0 24 24" version="1.1" xmlns="http://www.w3.org/2000/svg" xmlns:xlink="http://www.w3.org/1999/xlink" xml:space="preserve" xmlns:serif="http://www.serif.com/" style="fill-rule:evenodd;clip-rule:evenodd;stroke-linejoin:round;stroke-miterlimit:2;">
    <path d="m22.341,12.002c-0,-5.711 -4.63,-10.341 -10.341,-10.341c-5.711,0 -10.341,4.63 -10.341,10.341c0,5.161 3.782,9.439 8.726,10.215l-0,-7.225l-2.627,-0l0,-2.99l2.627,0l-0,-2.278c-0,-2.591 1.543,-4.023 3.905,-4.023c1.132,0 2.315,0.202 2.315,0.202l-0,2.544l-1.303,-0c-1.286,-0 -1.686,0.797 -1.686,1.615l0,1.94l2.868,0l-0.458,2.989l-2.41,-0l0,7.226c4.943,-0.776 8.725,-5.054 8.725,-10.215z"/>
</svg>
