<?xml version="1.0" encoding="UTF-8" standalone="no"?>
<!DOCTYPE svg PUBLIC "-//W3C//DTD SVG 1.1//EN" "http://www.w3.org/Graphics/SVG/1.1/DTD/svg11.dtd">
<svg width="100%" height="100%" viewBox="0 0 24 24" version="1.1" xmlns="http://www.w3.org/2000/svg" xmlns:xlink="http://www.w3.org/1999/xlink" xml:space="preserve" xmlns:serif="http://www.serif.com/" style="fill-rule:evenodd;clip-rule:evenodd;stroke-linejoin:round;stroke-miterlimit:2;">
    <path d="M23,8.511l-9.352,5.755c-1.009,0.621 -2.287,0.621 -3.296,-0l-9.352,-5.754l0,8.988c0,1.724 1.419,3.143 3.143,3.143l15.714,-0c1.724,-0 3.143,-1.419 3.143,-3.143l0,-8.989Zm-0,-1.845l-0,-0.166c-0,-1.724 -1.419,-3.143 -3.143,-3.143c0,0 -15.714,0 -15.714,0c-1.724,0 -3.143,1.419 -3.143,3.143l0,0.167l10.176,6.261c0.504,0.31 1.144,0.31 1.648,-0l10.176,-6.262Z"/>
</svg>
