<?xml version="1.0" encoding="UTF-8" standalone="no"?>
<!DOCTYPE svg PUBLIC "-//W3C//DTD SVG 1.1//EN" "http://www.w3.org/Graphics/SVG/1.1/DTD/svg11.dtd">
<svg width="100%" height="100%" viewBox="0 0 24 24" version="1.1" xmlns="http://www.w3.org/2000/svg" xmlns:xlink="http://www.w3.org/1999/xlink" xml:space="preserve" xmlns:serif="http://www.serif.com/" style="fill-rule:evenodd;clip-rule:evenodd;stroke-linejoin:round;stroke-miterlimit:2;">
    <path d="M1.5,6.75c0,8.698 7.052,15.75 15.75,15.75l2.25,0c1.646,0 3,-1.354 3,-3l0,-1.372c0,-0.86 -0.585,-1.61 -1.42,-1.819l-4.423,-1.106c-0.734,-0.183 -1.504,0.092 -1.955,0.696l-0.97,1.292c-0.083,0.111 -0.222,0.174 -0.351,0.126c-3.105,-1.142 -5.556,-3.593 -6.698,-6.698c-0.048,-0.129 0.015,-0.268 0.126,-0.351l1.293,-0.97c0.604,-0.451 0.878,-1.223 0.695,-1.955l-1.106,-4.423c-0.208,-0.832 -0.962,-1.42 -1.819,-1.42l-1.372,-0c-1.646,-0 -3,1.354 -3,3c0,-0 0,2.25 0,2.25Z" style="fill-rule:nonzero;"/>
</svg>
