<?xml version="1.0" encoding="UTF-8" standalone="no"?>
<!DOCTYPE svg PUBLIC "-//W3C//DTD SVG 1.1//EN" "http://www.w3.org/Graphics/SVG/1.1/DTD/svg11.dtd">
<svg width="100%" height="100%" viewBox="0 0 24 24" version="1.1" xmlns="http://www.w3.org/2000/svg" xmlns:xlink="http://www.w3.org/1999/xlink" xml:space="preserve" xmlns:serif="http://www.serif.com/" style="fill-rule:evenodd;clip-rule:evenodd;stroke-linejoin:round;stroke-miterlimit:2;">
    <path d="M12,10.939l-5.47,-5.469c-0.292,-0.293 -0.768,-0.293 -1.06,-0c-0.293,0.292 -0.293,0.768 -0,1.06l5.469,5.47l-5.469,5.47c-0.293,0.292 -0.293,0.768 -0,1.06c0.292,0.293 0.768,0.293 1.06,0l5.47,-5.469l5.47,5.469c0.292,0.293 0.768,0.293 1.06,0c0.293,-0.292 0.293,-0.768 0,-1.06l-5.469,-5.47l5.469,-5.47c0.293,-0.292 0.293,-0.768 0,-1.06c-0.292,-0.293 -0.768,-0.293 -1.06,-0l-5.47,5.469Z"/>
</svg>
